<?xml version="1.0" encoding="UTF-8"?>
<svg version="1.1" xmlns="http://www.w3.org/2000/svg" width="1024" height="1024">
<path d="M0 0 C337.92 0 675.84 0 1024 0 C1024 337.92 1024 675.84 1024 1024 C686.08 1024 348.16 1024 0 1024 C0 686.08 0 348.16 0 0 Z " fill="#FEFEFE" transform="translate(0,0)"/>
<path d="M0 0 C69.02038204 -0.1613254 69.02038204 -0.1613254 97.81640625 -0.1953125 C104.40771525 -0.2031441 110.99902386 -0.21122606 117.59033203 -0.21972656 C118.41645559 -0.22078156 119.24257916 -0.22183655 120.09373677 -0.22292352 C133.43431971 -0.2403251 146.77483376 -0.27186275 160.11537583 -0.30861118 C173.80437073 -0.34600524 187.49332953 -0.3682326 201.1823734 -0.37635398 C209.63061475 -0.38184495 218.07866144 -0.3991933 226.52684288 -0.43166587 C232.31853496 -0.45279483 238.11012628 -0.45920373 243.90185411 -0.45400551 C247.24449666 -0.45144111 250.58652417 -0.45757685 253.92915344 -0.4768219 C257.55319087 -0.49666775 261.17638948 -0.4919579 264.80044556 -0.48101807 C266.38508258 -0.49849512 266.38508258 -0.49849512 268.00173247 -0.51632524 C276.29987319 -0.44842871 280.44992141 2.18940862 286.27426147 8.04048157 C287.07029282 8.83520874 287.86632416 9.62993591 288.68647766 10.44874573 C289.54065781 11.31168747 290.39483795 12.17462921 291.27490234 13.0637207 C292.18951736 13.97964996 293.10413239 14.89557922 294.04646301 15.83926392 C296.02840634 17.8241298 298.00716402 19.81209813 299.98347092 21.80257607 C303.11470439 24.95618551 306.25311117 28.1025913 309.39248657 31.24809265 C314.36251272 36.2294822 319.32784363 41.21552152 324.29112589 46.20362967 C333.16634536 55.12317792 342.04708935 64.03721666 350.93318331 72.94593114 C354.04629153 76.06739601 357.15656818 79.19164629 360.26452231 82.31824267 C361.73678804 83.79863824 363.2102113 85.27787042 364.68412781 86.75662231 C366.47220997 88.55067675 368.2584775 90.34654261 370.04246521 92.14466858 C374.32861302 96.43891986 378.68032871 100.58096551 383.29339218 104.52345276 C387.50880484 108.17060347 391.38106236 112.19513474 395.3203125 116.13500977 C396.88785207 117.7003339 398.46326961 119.25744291 400.0390625 120.81445312 C401.04475855 121.81721942 402.04998435 122.82045763 403.0546875 123.82421875 C403.95687012 124.72229248 404.85905273 125.62036621 405.78857422 126.5456543 C409.77284589 130.96758884 410.24934141 133.94388866 410.24050903 139.89691162 C410.24307231 140.93721869 410.24307231 140.93721869 410.24568737 141.99854207 C410.2489808 144.32172441 410.23798115 146.64461772 410.22705078 148.96777344 C410.22648663 150.63336683 410.22680329 152.29896073 410.22793579 153.96455383 C410.22851017 158.4869435 410.21674204 163.00922732 410.20278788 167.53159237 C410.19029475 172.25748599 410.18911114 176.98338197 410.18673706 181.70928955 C410.18051812 190.65879471 410.1641017 199.60825107 410.14403808 208.55773473 C410.12169197 218.74626041 410.11068889 228.93478841 410.10064721 239.1233325 C410.07973583 260.08225496 410.04305442 281.04111052 410 302 C397.13 302 384.26 302 371 302 C371 257.12 371 212.24 371 166 C330.74 166 290.48 166 249 166 C249 123.76 249 81.52 249 38 C179.37 38 109.74 38 38 38 C38 79.91 38 121.82 38 165 C25.46 165 12.92 165 0 165 C0 110.55 0 56.1 0 0 Z " fill="#222222" transform="translate(326,215)"/>
<path d="M0 0 C14.52 0 29.04 0 44 0 C44 34.98 44 69.96 44 106 C50.24533692 100.58324996 50.24533692 100.58324996 56.18115234 94.91650391 C56.89483978 94.19951324 57.60852722 93.48252258 58.34384155 92.74380493 C59.08373322 91.99561493 59.82362488 91.24742493 60.5859375 90.4765625 C61.36893219 89.68978119 62.15192688 88.90299988 62.95864868 88.09237671 C65.43322766 85.60568365 67.90450839 83.11575341 70.375 80.625 C73.65079927 77.32267604 76.92985174 74.02363303 80.2109375 70.7265625 C81.33899307 69.58605942 81.33899307 69.58605942 82.48983765 68.42251587 C83.18461212 67.72443817 83.8793866 67.02636047 84.59521484 66.30712891 C85.20618011 65.69092682 85.81714539 65.07472473 86.44662476 64.43984985 C89.72339876 61.40255247 93.05844948 61.47094842 97.36328125 61.55078125 C102.2270072 62.37941604 104.70963489 65.52995625 108 69 C109.11361831 70.09997938 110.23112562 71.1960293 111.3515625 72.2890625 C121.75922014 82.4951259 121.75922014 82.4951259 122.5 87.125 C121.97405293 91.2010898 121.63015973 91.82958761 119.00984192 94.69300842 C118.37096857 95.39278872 117.73209522 96.09256901 117.07386208 96.81355476 C113.55126333 100.52738382 109.96666884 104.1721812 106.3425293 107.78686523 C105.50591263 108.62523422 104.66929596 109.46360321 103.80732727 110.32737732 C101.06545301 113.07362218 98.31997404 115.81622964 95.57421875 118.55859375 C93.66050162 120.47253394 91.74738342 122.3870725 89.83418274 124.30152893 C85.83745705 128.30006641 81.83864383 132.29650707 77.83862305 136.29174805 C73.21335812 140.91154987 68.59173669 145.5349732 63.97194737 150.16025013 C59.99657638 154.14015388 56.01926671 158.11811234 52.04031879 162.09444004 C49.66729265 164.46590717 47.29494752 166.83804494 44.92435265 169.21194267 C42.28880698 171.8500152 39.65009916 174.48488261 37.01049805 177.11889648 C36.2245224 177.90689636 35.43854675 178.69489624 34.62875366 179.5067749 C33.9125032 180.22020554 33.19625275 180.93363617 32.45829773 181.66868591 C31.83503947 182.29156714 31.21178122 182.91444838 30.56963634 183.5562048 C28.01462387 185.90637639 26.13746793 186.203041 22.75 186.3125 C21.62851562 186.36857422 21.62851562 186.36857422 20.484375 186.42578125 C13.399561 185.21155998 8.09637331 178.3796307 3.27246094 173.53125 C2.41648315 172.67877686 1.56050537 171.82630371 0.67858887 170.94799805 C-1.65547468 168.62120377 -3.98501222 166.28999798 -6.31226063 163.95639038 C-8.75332837 161.51024016 -11.1992936 159.06899479 -13.64447021 156.62695312 C-17.74672636 152.5283287 -21.8447627 148.42552059 -25.94042969 144.3203125 C-30.67303878 139.57680587 -35.41282925 134.84056659 -40.15638566 130.10800934 C-44.23492782 126.03854536 -48.30955685 121.96519413 -52.38094497 117.88857269 C-54.81013095 115.45627181 -57.24064068 113.02533508 -59.67469025 110.59790039 C-62.38555094 107.89389402 -65.08818516 105.18175747 -67.79003906 102.46875 C-68.59628723 101.66655029 -69.4025354 100.86435059 -70.23321533 100.0378418 C-70.96773926 99.29767822 -71.70226318 98.55751465 -72.45904541 97.79492188 C-73.09835117 97.15486206 -73.73765694 96.51480225 -74.3963356 95.85534668 C-76.75171294 93.13031173 -77.84290256 90.76803193 -78.5625 87.25 C-77.67987087 82.15036505 -74.57359657 79.59672665 -71 76 C-69.9035393 74.87770824 -68.80719376 73.75530396 -67.7109375 72.6328125 C-57.10092013 61.85454614 -57.10092013 61.85454614 -51.375 61.5 C-50.55773437 61.4278125 -49.74046875 61.355625 -48.8984375 61.28125 C-41.43446193 63.13215499 -35.16702129 71.70725028 -29.88671875 77.05078125 C-28.78237236 78.16080757 -28.78237236 78.16080757 -27.65571594 79.29325867 C-25.33050885 81.63056873 -23.00860516 83.97111686 -20.6875 86.3125 C-17.61094408 89.41562977 -14.53110205 92.51544338 -11.44921875 95.61328125 C-10.74609055 96.32470779 -10.04296234 97.03613434 -9.31852722 97.76911926 C-8.66386978 98.42707993 -8.00921234 99.08504059 -7.3347168 99.76293945 C-6.47489449 100.63061699 -6.47489449 100.63061699 -5.59770203 101.51582336 C-3.86213587 103.20738308 -3.86213587 103.20738308 -1 105 C-0.67 70.35 -0.34 35.7 0 0 Z " fill="#212121" transform="translate(658,557)"/>
<path d="M0 0 C89.36764706 0 89.36764706 0 107.75 17.1875 C123.12284679 33.40083753 123.64725897 54.3985221 123.23699951 75.38832092 C123.02303993 82.76230127 121.84408192 89.15280591 119 96 C118.59910156 97.03125 118.19820312 98.0625 117.78515625 99.125 C111.18723974 114.11852622 99.63581832 123.21383828 84.828125 129.3046875 C57.75583987 138.91324466 28.02954811 134 0 134 C0 89.78 0 45.56 0 0 Z " fill="#212121" transform="translate(395,438)"/>
<path d="M0 0 C12.54 0 25.08 0 38 0 C38 19.14 38 38.28 38 58 C43.7534082 57.9371582 49.50681641 57.87431641 55.43457031 57.80957031 C74.44921974 57.61068469 93.46391026 57.47755263 112.47932816 57.37825394 C124.00791797 57.31644786 135.53552055 57.23222785 147.06347656 57.09472656 C157.11452814 56.97489869 167.16486462 56.89764992 177.21661067 56.87093806 C182.53651538 56.85532923 187.85437485 56.81880713 193.17362213 56.73123932 C198.1877145 56.64936915 203.19893336 56.62474057 208.21363068 56.64270782 C210.04706483 56.63942455 211.88060173 56.61579134 213.7134552 56.5695343 C228.96956752 56.20361032 228.96956752 56.20361032 235.36942935 62.20776248 C237.72378425 64.69964421 239.84935753 67.32990925 242 70 C243.36361834 71.26734174 244.7519623 72.51005236 246.1875 73.6953125 C250.68261151 77.53197859 254.83383626 81.68717509 259 85.875 C259.77472656 86.64585937 260.54945313 87.41671875 261.34765625 88.2109375 C262.07855469 88.943125 262.80945313 89.6753125 263.5625 90.4296875 C264.22378906 91.09210449 264.88507813 91.75452148 265.56640625 92.43701172 C267 94 267 94 267 95 C178.89 95 90.78 95 0 95 C0 63.65 0 32.3 0 0 Z " fill="#212121" transform="translate(326,631)"/>
<path d="M0 0 C11.075625 -0.0825 22.15125 -0.165 33.5625 -0.25 C37.0282251 -0.28641602 40.4939502 -0.32283203 44.06469727 -0.36035156 C48.37683105 -0.37841797 48.37683105 -0.37841797 50.41099548 -0.3817749 C51.79788892 -0.38782005 53.18476466 -0.40167961 54.57151794 -0.42230225 C70.50882723 -0.64695443 86.33666026 2.09713301 98.75 13 C109.33934903 24.3822713 110.57985033 37.94536309 110.13623047 52.66748047 C109.52503499 63.13228628 103.71292966 73.96364311 96 81 C81.93582192 91.30052479 66.29303246 93.35206351 49.3125 93.125 C44.919375 93.08375 40.52625 93.0425 36 93 C36 106.2 36 119.4 36 133 C24.12 133 12.24 133 0 133 C0 89.11 0 45.22 0 0 Z " fill="#212121" transform="translate(258,438)"/>
<path d="M0 0 C30.36 0 60.72 0 92 0 C92 9.24 92 18.48 92 28 C73.52 28 55.04 28 36 28 C36 37.24 36 46.48 36 56 C50.52 56 65.04 56 80 56 C80 65.24 80 74.48 80 84 C65.48 84 50.96 84 36 84 C36 100.17 36 116.34 36 133 C24.12 133 12.24 133 0 133 C0 89.11 0 45.22 0 0 Z " fill="#212121" transform="translate(545,438)"/>
<path d="M0 0 C32.81395349 0 32.81395349 0 43.75 10.6875 C51.63295269 21.02055961 51.82506831 34.56897085 51 47 C49.78254588 55.95550998 46.88755373 63.73041283 39.9609375 69.78125 C27.62255492 78.6753491 15.2794273 77 0 77 C0 51.59 0 26.18 0 0 Z " fill="#FCFCFC" transform="translate(431,466)"/>
<path d="M0 0 C6.17462045 5.29253181 11.86664155 10.46033116 17.12890625 16.62890625 C21.3579795 21.48322466 25.87581601 26.02255557 30.4375 30.5625 C31.24509766 31.37396484 32.05269531 32.18542969 32.88476562 33.02148438 C37.14600064 37.27585197 41.48709537 41.35187566 46.05102539 45.27807617 C49.50874733 48.33298195 52.74829873 51.60390488 56 54.875 C57.01900391 55.88820313 57.01900391 55.88820313 58.05859375 56.921875 C58.69925781 57.56382812 59.33992187 58.20578125 60 58.8671875 C60.5775 59.44581543 61.155 60.02444336 61.75 60.62060547 C63 62 63 62 63 63 C42.21 63 21.42 63 0 63 C0 42.21 0 21.42 0 0 Z " fill="#FDFDFD" transform="translate(614,280)"/>
<path d="M0 0 C27.10714286 0 27.10714286 0 33 5 C37.7435065 11.32467534 38.65210878 16.27130336 38 24 C36.23912588 29.18479602 33.4418063 31.86460732 29 35 C23.21869312 37.6654674 17.34963904 37.22388714 11.125 37.125 C7.45375 37.08375 3.7825 37.0425 0 37 C0 24.79 0 12.58 0 0 Z " fill="#FCFCFC" transform="translate(294,466)"/>
<path d="M0 0 C0 8.91 0 17.82 0 27 C-18.48 27 -36.96 27 -56 27 C-56 26.67 -56 26.34 -56 26 C-38.51 26 -21.02 26 -3 26 C-3 18.08 -3 10.16 -3 2 C-31.71 2 -60.42 2 -90 2 C-90 1.67 -90 1.34 -90 1 C-78.85607848 0.86934235 -67.71215406 0.73893512 -56.56822586 0.60884857 C-51.39378974 0.54843787 -46.21935467 0.48794056 -41.04492188 0.42724609 C-36.05233747 0.36868783 -31.05975046 0.31035604 -26.06716156 0.25218201 C-24.16136328 0.22993555 -22.25556595 0.20760716 -20.34976959 0.18519592 C-17.68272647 0.15384671 -15.01568012 0.12278747 -12.34863281 0.09179688 C-11.1639592 0.07777077 -11.1639592 0.07777077 -9.95535278 0.0634613 C-6.6365288 0.02516136 -3.31910826 0 0 0 Z " fill="#292829" transform="translate(637,438)"/>
<path d="M0 0 C3.96 0 7.92 0 12 0 C11.67 0.99 11.34 1.98 11 3 C10.484375 2.855625 9.96875 2.71125 9.4375 2.5625 C6.31490429 1.84190099 3.17449308 1.42733561 0 1 C0 0.67 0 0.34 0 0 Z " fill="#2E2E2E" transform="translate(304,464)"/>
</svg>
