<?xml version="1.0" encoding="UTF-8"?>
<svg version="1.1" xmlns="http://www.w3.org/2000/svg" width="1024" height="1024">
<path d="M0 0 C337.92 0 675.84 0 1024 0 C1024 337.92 1024 675.84 1024 1024 C686.08 1024 348.16 1024 0 1024 C0 686.08 0 348.16 0 0 Z " fill="#FEFEFE" transform="translate(0,0)"/>
<path d="M0 0 C0.8240609 -0.00367669 1.6481218 -0.00735338 2.49715424 -0.01114148 C5.2566541 -0.02214854 8.01611626 -0.02601713 10.77563477 -0.02983093 C12.75525532 -0.03609795 14.7348747 -0.04274496 16.7144928 -0.04974365 C23.21533391 -0.07076223 29.71617519 -0.08114559 36.21704102 -0.09111023 C38.45825208 -0.09515894 40.69946302 -0.09927589 42.94067383 -0.10346031 C53.47363623 -0.12250898 64.00659164 -0.13673939 74.53956795 -0.14507228 C86.68043901 -0.15483677 98.82112737 -0.18113716 110.96193409 -0.22157317 C120.35664171 -0.2517843 129.75129712 -0.26654599 139.14605236 -0.26985329 C144.75181884 -0.27219851 150.35739007 -0.28108989 155.96310425 -0.30631447 C161.24253588 -0.32968692 166.52164497 -0.33379159 171.80111504 -0.32355309 C173.73073846 -0.32305981 175.66037826 -0.3293184 177.58995247 -0.34310913 C191.57657375 -0.43741692 205.03871721 -0.068038 215.77954102 10.14717102 C216.46790039 10.79556946 217.15625977 11.4439679 217.86547852 12.11201477 C226.71838399 21.21174847 229.93405522 31.92023325 229.91998291 44.36763 C229.92443959 45.60372135 229.92443959 45.60372135 229.92898631 46.86478424 C229.93765315 49.62428807 229.93917988 52.38374841 229.94067383 55.14326477 C229.94530356 57.12288505 229.95032843 59.10250445 229.95571899 61.0821228 C229.96883319 66.4606269 229.97528647 71.83911852 229.97972965 77.21763611 C229.98266298 80.58119372 229.98676837 83.94474793 229.99123383 87.30830383 C230.00490843 97.84126838 230.01457431 108.37422515 230.01843572 118.90719795 C230.02291142 131.04803572 230.04043684 143.18876063 230.06943631 155.32956409 C230.09109372 164.72427251 230.10114222 174.11894927 230.10247684 183.51368237 C230.10352229 189.11941049 230.10937432 194.72503251 230.12729645 200.33073425 C230.14384654 205.61012727 230.14589907 210.88933523 230.13715744 216.16874504 C230.13639067 218.09836258 230.14068182 220.02799035 230.15061569 221.95758247 C230.22561198 237.44300396 229.85511988 252.44974693 218.67016602 264.40107727 C209.73156381 272.7694583 200.28115861 276.45893777 188.12202454 276.42132568 C187.27513146 276.42656236 186.42823839 276.43179904 185.55568188 276.43719441 C182.7309205 276.45214082 179.90634111 276.45289838 177.08154297 276.4535675 C175.05074256 276.46119265 173.01994503 276.46962076 170.989151 276.47879028 C165.4806654 276.5007085 159.9722353 276.50953074 154.46371102 276.51461673 C151.01873574 276.5182638 147.57377492 276.52450573 144.12880516 276.53161812 C132.10034931 276.55610441 120.07193653 276.56916251 108.04345703 276.57270813 C96.84798451 276.57634157 85.65278644 276.60622555 74.45739776 276.64811271 C64.83251076 276.68285579 55.20771454 276.69825728 45.58276528 276.69895416 C39.84009424 276.69974567 34.09770282 276.7084265 28.35509682 276.73695183 C22.94999939 276.76320075 17.54541206 276.76529939 12.14027977 276.74929619 C10.16347004 276.74748708 8.18663052 276.75412349 6.20988464 276.7701149 C-7.86087615 276.87694731 -19.01728185 275.46231863 -30.25170898 266.10029602 C-38.27363759 258.14203351 -42.30018517 248.26415918 -42.36818868 237.05669343 C-42.36800432 236.26166182 -42.36781995 235.4666302 -42.36763 234.64750671 C-42.37130669 233.79344982 -42.37498338 232.93939292 -42.37877148 232.05945551 C-42.38978163 229.19855118 -42.39364764 226.33768319 -42.39746094 223.47676086 C-42.40372762 221.42493068 -42.4103746 219.37310162 -42.41737366 217.3212738 C-42.43839259 210.58356005 -42.4487742 203.84584612 -42.45874023 197.10810852 C-42.46278864 194.78636793 -42.46690558 192.46462746 -42.47109032 190.14288712 C-42.49013742 179.23403784 -42.50436933 168.32519531 -42.51270229 157.4163326 C-42.52247248 144.83454053 -42.5487885 132.25292449 -42.58920318 119.67119443 C-42.61938804 109.93936591 -42.63417343 100.20758779 -42.6374833 90.47571337 C-42.6398311 84.66656913 -42.64875669 78.85761305 -42.67394447 73.04851913 C-42.69727146 67.58031849 -42.7014397 62.1124293 -42.69118309 56.64419174 C-42.69068875 54.64277611 -42.69697912 52.6413449 -42.71073914 50.6399765 C-42.8101645 35.3151512 -41.2387643 22.97811484 -30.44311523 11.20967102 C-21.74527525 2.95650589 -11.73852202 -0.00282366 0 0 Z " fill="#2F2F2F" transform="translate(268.220458984375,367.8528289794922)"/>
<path d="M0 0 C81.50876842 -6.23922415 81.50876842 -6.23922415 109.97119141 -7.47558594 C111.31540587 -7.53461728 111.31540587 -7.53461728 112.68677619 -7.59484118 C322.96576758 -16.7605012 322.96576758 -16.7605012 407.85787725 41.59164047 C413.31810279 46.61612915 418.51036078 51.87639306 423.625 57.25 C424.34749372 58.00304602 425.06998745 58.75609203 425.81437492 59.53195763 C482.69150326 119.27264741 487.11668369 196.37937698 485.30622172 274.60348955 C484.25455485 315.87631899 480.69301433 356.99352448 476 398 C463.79 398 451.58 398 439 398 C439 327.71 439 257.42 439 185 C390.82 185 342.64 185 293 185 C293 136.49 293 87.98 293 38 C208.85 38 124.7 38 38 38 C38 71.33 38 104.66 38 139 C25.46 139 12.92 139 0 139 C0 93.13 0 47.26 0 0 Z " fill="#2F2F2F" transform="translate(296,200)"/>
<path d="M0 0 C14.19 0 28.38 0 43 0 C43.33 51.48 43.66 102.96 44 156 C61.16 138.84 78.32 121.68 96 104 C100.25595755 106.12797877 103.01794739 108.76324872 106.296875 112.1015625 C106.89050842 112.69802582 107.48414185 113.29448914 108.09576416 113.9090271 C109.98526627 115.8096981 111.86768392 117.71721474 113.75 119.625 C115.03209065 120.91712468 116.31463761 122.20879676 117.59765625 123.5 C120.73708432 126.66144479 123.87017801 129.8290461 127 133 C125.34875004 137.24494495 122.18843971 140.09250225 119.02148438 143.23730469 C118.10415276 144.15989326 118.10415276 144.15989326 117.16828918 145.10112 C115.14844089 147.12976089 113.12137664 149.15101072 111.09375 151.171875 C109.6886311 152.57834091 108.28380922 153.98510362 106.87927246 155.39215088 C103.93691784 158.33745313 100.99097787 161.27910931 98.04248047 164.21826172 C94.25579022 167.99353675 90.47817622 171.77774639 86.70317841 175.56470871 C83.80554256 178.46955498 80.90318062 181.3696413 77.99934387 184.26828766 C76.60395805 185.6623358 75.21006605 187.0578808 73.81767273 188.45491791 C71.87607254 190.40157212 69.92822069 192.34174156 67.97851562 194.28027344 C67.39975174 194.86308578 66.82098785 195.44589813 66.22468567 196.04637146 C62.2285307 200 62.2285307 200 60 200 C59.7525 200.61875 59.505 201.2375 59.25 201.875 C57.79371361 204.35068687 56.62187494 204.95125002 54 206 C54 206.66 54 207.32 54 208 C52.671875 209.30688477 52.671875 209.30688477 50.75 210.87890625 C44.84284082 215.90181475 39.455485 221.43704755 34 226.9375 C32.92862113 228.01390654 31.85700818 229.09008014 30.78515625 230.16601562 C28.18740362 232.77466745 25.59282038 235.38644471 23 238 C19.53748024 236.51122803 17.29914605 234.54618828 14.64666748 231.88717651 C13.78292511 231.02618347 12.91918274 230.16519043 12.02926636 229.27810669 C11.08029018 228.32205287 10.13141034 227.36590342 9.18261719 226.40966797 C8.17754353 225.40403002 7.17202897 224.39883254 6.16610718 223.39404297 C3.43879409 220.66730371 0.71769152 217.9344419 -2.00234318 215.2004447 C-4.84684044 212.34344513 -7.69700229 209.49210812 -10.54656982 206.64016724 C-15.94076494 201.23975589 -21.32984153 195.83426652 -26.71710086 190.42693722 C-32.8509762 184.27070736 -38.99053138 178.12015539 -45.13057184 171.97007537 C-57.76004796 159.31969401 -70.38236845 146.66219473 -83 134 C-82.05929331 132.89292532 -81.11719608 131.78703214 -80.17453003 130.68162537 C-79.65005217 130.06565207 -79.1255743 129.44967878 -78.58520317 128.81503963 C-76.28974252 126.18676325 -73.85796485 123.74640325 -71.3828125 121.28515625 C-70.88079315 120.78455185 -70.3787738 120.28394745 -69.86154175 119.76817322 C-68.28506329 118.19721402 -66.70511427 116.62980123 -65.125 115.0625 C-64.04403726 113.98656273 -62.96330617 112.91039269 -61.8828125 111.83398438 C-59.25787359 109.21996708 -56.62981372 106.60911404 -54 104 C-49.73294513 105.65494286 -46.8628007 108.84913041 -43.703125 112.03125 C-43.10949158 112.62296997 -42.51585815 113.21468994 -41.90423584 113.82434082 C-40.65456282 115.07265581 -39.40740008 116.32348823 -38.16259766 117.57666016 C-36.24992048 119.50007997 -34.32676881 121.41256099 -32.40234375 123.32421875 C-31.18946202 124.53842139 -29.97720048 125.75324393 -28.765625 126.96875 C-27.89855927 127.82974304 -27.89855927 127.82974304 -27.01397705 128.70812988 C-23 132.77006566 -23 132.77006566 -23 135 C-22.42475586 135.25072266 -21.84951172 135.50144531 -21.25683594 135.75976562 C-18.69558804 137.16728827 -16.95942608 138.78170025 -14.890625 140.84375 C-13.75947266 141.97103516 -13.75947266 141.97103516 -12.60546875 143.12109375 C-11.82816406 143.90613281 -11.05085937 144.69117188 -10.25 145.5 C-9.06083984 146.67755859 -9.06083984 146.67755859 -7.84765625 147.87890625 C-7.09871094 148.63042969 -6.34976563 149.38195312 -5.578125 150.15625 C-4.89137695 150.84525391 -4.20462891 151.53425781 -3.49707031 152.24414062 C-2 154 -2 154 -2 156 C-1.34 156 -0.68 156 0 156 C0 104.52 0 53.04 0 0 Z " fill="#2F2F2F" transform="translate(614,536)"/>
<path d="M0 0 C10.89 0 21.78 0 33 0 C34.32515625 4.90230469 35.6503125 9.80460937 37.015625 14.85546875 C37.86303523 17.98639518 38.71057831 21.11728446 39.55859375 24.24804688 C40.90053593 29.20237171 42.24202082 34.15681679 43.58056641 39.11206055 C44.66141462 43.11319503 45.74449336 47.11371993 46.8290329 51.11385536 C47.23959355 52.62962249 47.64938979 54.1455969 48.05835724 55.66179466 C50.53296468 64.8337395 53.13434324 73.94084871 56 83 C56.18632996 82.46162506 56.37265991 81.92325012 56.56463623 81.36856079 C65.96277911 54.21706466 75.39382883 27.07866747 85 0 C93.25 0 101.5 0 110 0 C119.33333333 27.33333333 128.66666667 54.66666667 138 82 C139.843452 79.23482199 140.59624319 77.41547039 141.49291992 74.28271484 C141.90926949 72.84247452 141.90926949 72.84247452 142.33403015 71.37313843 C142.62985489 70.32961212 142.92567963 69.28608582 143.23046875 68.2109375 C143.54397781 67.12027985 143.85748688 66.02962219 144.18049622 64.90591431 C145.18773462 61.3969937 146.18762239 57.8860243 147.1875 54.375 C147.8413347 52.0949195 148.49562702 49.81497017 149.15039062 47.53515625 C151.80060958 38.29224386 154.43448752 29.04510502 157.01416016 19.78222656 C157.33564529 18.62824371 157.65713043 17.47426086 157.98835754 16.28530884 C158.60113416 14.08158717 159.21196522 11.87732334 159.82060242 9.67245483 C160.22905144 8.20191147 160.22905144 8.20191147 160.64575195 6.70166016 C160.88405228 5.83900543 161.1223526 4.97635071 161.36787415 4.08755493 C162 2 162 2 163 0 C173.89 0 184.78 0 196 0 C187.24227489 27.13939893 178.30531409 54.21344468 169.26916504 81.26116943 C167.53766016 86.44521083 165.80798484 91.62986262 164.078125 96.81445312 C160.72047307 106.87687802 157.36073354 116.93860391 154 127 C145.09 127 136.18 127 127 127 C122.50102397 116.87730393 122.50102397 116.87730393 120.69750977 111.84448242 C120.29351456 110.72269089 119.88951935 109.60089935 119.47328186 108.44511414 C119.05026291 107.26053116 118.62724396 106.07594818 118.19140625 104.85546875 C117.73865508 103.59656878 117.28551714 102.33780785 116.83201599 101.07917786 C115.40510976 97.11662183 113.9835093 93.15217382 112.5625 89.1875 C110.91627844 84.59541564 109.26775838 80.00417618 107.61445427 75.41463661 C106.96235696 73.60123022 106.31394908 71.78649844 105.66566467 69.97172546 C102.99432716 62.54948601 100.10475136 55.25166313 97 48 C96.54786133 49.22589844 96.09572266 50.45179688 95.62988281 51.71484375 C80.38188129 93.0494354 80.38188129 93.0494354 73.77038574 110.7487793 C73.25747414 112.12277447 72.74550849 113.49712315 72.23449707 114.87182617 C71.53401287 116.75539393 70.82962663 118.63750922 70.125 120.51953125 C69.73570312 121.56214111 69.34640625 122.60475098 68.9453125 123.67895508 C68 126 68 126 67 127 C65.07332493 127.08748207 63.14348139 127.10697334 61.21484375 127.09765625 C59.46010742 127.09282227 59.46010742 127.09282227 57.66992188 127.08789062 C56.43822266 127.07951172 55.20652344 127.07113281 53.9375 127.0625 C52.08415039 127.05573242 52.08415039 127.05573242 50.19335938 127.04882812 C47.12885883 127.03699608 44.06445279 127.02051173 41 127 C40.3359375 125.0078125 39.671875 123.015625 39.0078125 121.0234375 C38.79063065 120.37193726 38.57344879 119.72043701 38.34968567 119.04919434 C37.07731459 115.23227484 35.80519781 111.41527083 34.53344727 107.59814453 C31.59996947 98.79434982 28.66362139 89.99152727 25.72164917 81.19056702 C10.91827504 36.90432472 10.91827504 36.90432472 5.08840942 19.00177002 C4.61742278 17.55643317 4.14501848 16.11155742 3.67111206 14.66717529 C3.03408371 12.72358673 2.40355175 10.77787237 1.7734375 8.83203125 C1.42716309 7.76702393 1.08088867 6.7020166 0.72412109 5.60473633 C0 3 0 3 0 0 Z " fill="#FDFDFD" transform="translate(265,450)"/>
<path d="M0 0 C24.63856109 -0.86354182 49.26457455 -1.56089812 73.91451454 -1.96886253 C85.36445909 -2.16346911 96.80413305 -2.42875428 108.24755859 -2.86669922 C191.60258625 -5.99674812 191.60258625 -5.99674812 211.64492607 11.11530876 C219.77194582 18.86549485 226.95858327 27.92329193 232 38 C232 38.33 232 38.66 232 39 C155.44 39 78.88 39 0 39 C0 26.13 0 13.26 0 0 Z " fill="#2F2F2F" transform="translate(296,688)"/>
<path d="M0 0 C0.99 0.495 0.99 0.495 2 1 C2 1.66 2 2.32 2 3 C2.639375 3.268125 3.27875 3.53625 3.9375 3.8125 C6 5 6 5 7 8 C8.31589089 8.70046655 9.65218725 9.36311461 11 10 C12.7728157 11.52392673 12.7728157 11.52392673 14.59405518 13.34681702 C15.28951447 14.03808182 15.98497375 14.72934662 16.70150757 15.44155884 C17.45388702 16.1995578 18.20626648 16.95755676 18.98144531 17.73852539 C19.7818222 18.53700394 20.5821991 19.33548248 21.40682983 20.15815735 C24.05217349 22.79979485 26.69024615 25.44856614 29.328125 28.09765625 C31.1605038 29.93122679 32.99325201 31.76442823 34.82635498 33.59727478 C38.66598897 37.43847323 42.50235734 41.28288759 46.3359375 45.13012695 C50.77357831 49.5835203 55.21645148 54.03163803 59.66234136 58.47679526 C63.93627749 62.75012211 68.20729886 67.02634603 72.47682953 71.30407524 C74.29600337 73.12644233 76.1157933 74.94819461 77.93619537 76.76933479 C80.4720411 79.30733546 83.00457403 81.84859335 85.53613281 84.39086914 C86.29660919 85.15089233 87.05708557 85.91091553 87.84060669 86.69396973 C88.52478668 87.3824147 89.20896667 88.07085968 89.91387939 88.78016663 C90.51338032 89.38134339 91.11288124 89.98252016 91.73054886 90.60191441 C93 92 93 92 93 93 C62.31 93 31.62 93 0 93 C0 62.31 0 31.62 0 0 Z " fill="#FDFDFD" transform="translate(626,255)"/>
<path d="M0 0 C0.33 0 0.66 0 1 0 C1 82.83 1 165.66 1 251 C-11.21 251 -23.42 251 -36 251 C-36 181.04 -36 111.08 -36 39 C-35.01 38.505 -35.01 38.505 -34 38 C-34 107.63 -34 177.26 -34 249 C-22.78 249 -11.56 249 0 249 C0 166.83 0 84.66 0 0 Z " fill="#181818" transform="translate(771,347)"/>
<path d="M0 0 C0.99 0.33 1.98 0.66 3 1 C-8.23046875 12.23046875 -8.23046875 12.23046875 -10.19042969 14.18823242 C-11.30344791 15.30260213 -12.41403217 16.41941699 -13.52050781 17.5402832 C-15.40436667 19.44610414 -17.2401533 21.18327489 -19.375 22.8125 C-22.39099734 25.32583112 -24.80793367 28.12076619 -27.359375 31.09375 C-29.15124373 33.17573081 -30.94524853 35.17355425 -33 37 C-33.66 37 -34.32 37 -35 37 C-33.63886987 33.95418514 -32.10669904 31.86160974 -29.74365234 29.51660156 C-29.08311859 28.85621887 -28.42258484 28.19583618 -27.74203491 27.51544189 C-27.03052277 26.81425232 -26.31901062 26.11306274 -25.5859375 25.390625 C-24.49147812 24.30041046 -24.49147812 24.30041046 -23.37490845 23.18817139 C-21.0462612 20.87070802 -18.71075174 18.5603005 -16.375 16.25 C-14.79381347 14.67884556 -13.21307875 13.10723629 -11.6328125 11.53515625 C-7.7604331 7.68481347 -3.88239829 3.84023883 0 0 Z " fill="#292929" transform="translate(706,644)"/>
<path d="M0 0 C0.66 0.33 1.32 0.66 2 1 C-5.29840547 9.44646925 -5.29840547 9.44646925 -9 13 C-9.66 12.67 -10.32 12.34 -11 12 C-3.70159453 3.55353075 -3.70159453 3.55353075 0 0 Z " fill="#282828" transform="translate(668,682)"/>
<path d="M0 0 C0.99 0 1.98 0 3 0 C2.71758359 1.46015291 2.42373386 2.91809793 2.125 4.375 C1.96257812 5.18710937 1.80015625 5.99921875 1.6328125 6.8359375 C1 9 1 9 -1 11 C-1.33 8.03 -1.66 5.06 -2 2 C-1.34 2 -0.68 2 0 2 C0 1.34 0 0.68 0 0 Z " fill="#222223" transform="translate(321,524)"/>
<path d="M0 0 C3.21043882 1.38188453 5.04936365 2.92421903 7.25 5.625 C8.03117188 6.57246094 8.03117188 6.57246094 8.828125 7.5390625 C9.40820312 8.26222656 9.40820312 8.26222656 10 9 C7 9 7 9 5.17578125 7.5390625 C4.56089844 6.90742187 3.94601562 6.27578125 3.3125 5.625 C2.68988281 4.99851562 2.06726563 4.37203125 1.42578125 3.7265625 C0 2 0 2 0 0 Z " fill="#383838" transform="translate(562,642)"/>
<path d="M0 0 C3.7952131 1.49097658 5.61042731 3.75700849 8 7 C5 7 5 7 2.3125 4.625 C0 2 0 2 0 0 Z " fill="#3C3B3C" transform="translate(603,683)"/>
</svg>
