<?xml version="1.0" encoding="UTF-8"?>
<svg version="1.1" xmlns="http://www.w3.org/2000/svg" width="1024" height="1024">
<path d="M0 0 C337.92 0 675.84 0 1024 0 C1024 337.92 1024 675.84 1024 1024 C686.08 1024 348.16 1024 0 1024 C0 686.08 0 348.16 0 0 Z " fill="#FEFEFE" transform="translate(0,0)"/>
<path d="M0 0 C1.70501465 -0.00551503 1.70501465 -0.00551503 3.44447404 -0.01114148 C7.2558187 -0.02216038 11.06713607 -0.02601911 14.87849426 -0.02983093 C17.61026746 -0.03556697 20.34203659 -0.04273121 23.07380676 -0.04974365 C31.27164725 -0.06946943 39.46948889 -0.07956825 47.66734716 -0.08847144 C51.53166357 -0.09285976 55.39597862 -0.09822507 59.26029396 -0.10346031 C72.11175216 -0.1204669 84.96320952 -0.13496085 97.81467724 -0.14220905 C101.14665923 -0.14411881 104.47864121 -0.14603916 107.81062317 -0.147995 C109.05277782 -0.14872061 109.05277782 -0.14872061 110.32002649 -0.14946087 C123.7335322 -0.15776054 137.14694871 -0.18309891 150.56041547 -0.21557567 C164.34342157 -0.2486742 178.12638237 -0.26666024 191.90942842 -0.26985329 C199.64343288 -0.27201555 207.37730717 -0.28072266 215.11127281 -0.30631447 C221.69772858 -0.3280595 228.28402253 -0.33605317 234.87051012 -0.32634769 C238.22798284 -0.32181414 241.58485223 -0.32583156 244.94232368 -0.34310913 C248.59057227 -0.36082958 252.23798085 -0.35371991 255.88623047 -0.34057617 C256.93567107 -0.35154542 257.98511167 -0.36251466 259.0663535 -0.37381631 C271.81767808 -0.263301 282.32197962 4.82865145 291.51057434 13.52217102 C300.80447046 23.37413019 304.38855463 35.25185393 304.26850891 48.63909912 C304.27786885 50.27618296 304.27786885 50.27618296 304.28741789 51.94633919 C304.30325156 55.56876632 304.29078093 59.19051152 304.27815247 62.8129425 C304.28357786 65.42413218 304.29070286 68.03531879 304.2993927 70.64649963 C304.31710742 76.98198091 304.31336944 83.31727182 304.30174214 89.65276032 C304.29267936 94.80588699 304.29149606 99.9589606 304.2958374 105.11209297 C304.29645033 105.84773515 304.29706327 106.58337732 304.29769477 107.34131168 C304.29897378 108.83613778 304.30027064 110.33096387 304.30158514 111.82578994 C304.31297049 125.81784149 304.29990984 139.80978794 304.27838367 153.80182225 C304.26051827 165.78491105 304.26361613 177.76784479 304.28205872 189.75093079 C304.30350812 203.69406831 304.31186813 217.63711386 304.29960966 231.58026558 C304.29833558 233.06965481 304.29707809 234.55904405 304.2958374 236.0484333 C304.29491175 237.1474058 304.29491175 237.1474058 304.2939674 238.26857976 C304.2905264 243.40979314 304.29631581 248.55094775 304.30575562 253.69215202 C304.31820426 260.6239117 304.30922776 267.55537517 304.28617859 274.48710632 C304.28090894 277.02465393 304.2823752 279.56222624 304.29122925 282.09976387 C304.3483242 300.13141889 303.97367647 314.91275868 291.26057434 328.89717102 C290.43557434 329.63967102 289.61057434 330.38217102 288.76057434 331.14717102 C287.87369934 331.97217102 286.98682434 332.79717102 286.07307434 333.64717102 C276.36256116 341.56036557 265.5443244 343.45067585 253.40126038 343.41459656 C252.27583132 343.41912767 251.15040226 343.42365878 249.99086928 343.4283272 C246.22949194 343.44096121 242.46825958 343.43935145 238.7068634 343.43769836 C236.00597092 343.44368423 233.30508967 343.45043362 230.60420227 343.45805359 C224.03461337 343.4746325 217.46506037 343.48016173 210.89545229 343.48127834 C205.55249128 343.48223031 200.20954206 343.48634801 194.86658478 343.4926796 C179.70147409 343.51028364 164.53639166 343.5195198 149.37127069 343.51801865 C148.55453581 343.51793874 147.73780094 343.51785882 146.89631653 343.51777649 C146.07857859 343.51769473 145.26084065 343.51761297 144.41832277 343.51752873 C131.17051003 343.5167161 117.92281106 343.53585008 104.67503121 343.56405322 C91.05580245 343.59281718 77.43662911 343.60659158 63.81736922 343.60486567 C56.17782645 343.60420297 48.53840296 343.60964234 40.89888763 343.63122177 C34.39374648 343.6494799 27.88877867 343.6537431 21.38362291 343.64020292 C18.06854776 343.63369627 14.75407451 343.63566741 11.43898773 343.65090942 C7.83497249 343.66640257 4.23182025 343.65702559 0.62782288 343.64164734 C-0.4056678 343.65193447 -1.43915847 343.66222159 -2.50396705 343.67282045 C-15.27368614 343.55301882 -26.74006563 338.82448582 -36.27067566 330.33857727 C-46.53006645 319.51671988 -49.55165596 306.50366918 -49.5068512 292.08520508 C-49.51138231 291.00384067 -49.51591342 289.92247626 -49.52058184 288.80834323 C-49.53319396 285.2020849 -49.53160752 281.5959782 -49.529953 277.98970032 C-49.53594019 275.39703681 -49.54274618 272.80437509 -49.55030823 270.2117157 C-49.56687324 263.91030392 -49.57241571 257.60892957 -49.57353298 251.30749782 C-49.5744855 246.18242859 -49.57860592 241.05737164 -49.58493423 235.93230629 C-49.60253356 221.38181632 -49.61177504 206.83135577 -49.61027329 192.28085508 C-49.61019337 191.49754256 -49.61011346 190.71423005 -49.61003113 189.90718079 C-49.60990849 188.73076727 -49.60990849 188.73076727 -49.60978337 187.53058783 C-49.60897061 174.82279156 -49.62810917 162.11511386 -49.65630786 149.40735187 C-49.68507532 136.33953717 -49.69884607 123.27178022 -49.69712031 110.20393306 C-49.69645779 102.87515902 -49.70188943 95.54650932 -49.72347641 88.2177639 C-49.74365362 81.32382668 -49.74297517 74.43015562 -49.72844315 67.53620529 C-49.72635546 65.01113183 -49.73105347 62.48604191 -49.74316406 59.96099663 C-49.75866735 56.5037214 -49.74927382 53.04734465 -49.73390198 49.59008789 C-49.7441891 48.60007977 -49.75447623 47.61007164 -49.76507509 46.59006327 C-49.6464161 34.44443084 -45.24261048 22.7613943 -37.05192566 13.73701477 C-25.89008936 3.02236743 -15.02068413 -0.00261104 0 0 Z " fill="#292929" transform="translate(200.2394256591797,354.8528289794922)"/>
<path d="M0 0 C48.3930704 -2.02326181 96.74495767 -3.69597189 145.16850497 -4.64694498 C150.93964034 -4.76070013 156.71068678 -4.87848909 162.48168945 -4.9987793 C163.63014019 -5.02264955 164.77859094 -5.0465198 165.96184321 -5.07111339 C182.07162203 -5.41430587 198.16096587 -5.97446911 214.25742231 -6.70983244 C241.95592875 -7.97491601 269.63388492 -8.82953002 297.36328125 -8.88671875 C298.43494925 -8.88969882 299.50661725 -8.89267889 300.61076003 -8.89574927 C353.61748104 -8.97983426 398.8352197 -6.42304741 437.96879578 32.56938171 C453.30297635 48.25173197 466.95964422 65.71741408 478.59613878 84.29279023 C483.82921533 92.61374586 489.47397019 99.05812423 497.60505676 104.60005188 C527.48870832 125.78971977 562.64839853 152.92640377 569.40654688 190.97122841 C572.03563784 207.08590859 572.37846177 223.43749119 572.32421875 239.73046875 C572.32241586 240.45937453 572.32061297 241.1882803 572.31875545 241.93927413 C572.2527595 260.76074736 571.4507223 279.52993969 570.40200245 298.31902897 C569.80008234 309.22505264 569.3956906 320.12617139 569.11987305 331.04516602 C569.09031665 332.21190135 569.09031665 332.21190135 569.06016316 333.4022071 C568.96222612 337.30759481 568.86746235 341.21305187 568.77427042 345.11855543 C568.00694059 377.10634915 566.69027432 409.04720204 565 441 C564.01009001 440.14167006 563.02018002 439.28334011 562.00027275 438.39900017 C559.42207126 436.18577203 556.80745683 434.03842607 554.13691902 431.93777657 C539.26066716 420.12156366 523.20191878 407.36306027 520.62860429 387.52610052 C519.73119193 377.55276501 520.087555 367.55674282 520.55260611 357.57064581 C520.7690805 352.11377551 520.78541557 346.65584378 520.82546997 341.19534302 C520.93005864 330.91269273 521.20739284 320.64272575 521.55135262 310.3655988 C522.00703989 296.43970479 522.18686627 282.51019648 522.38442802 268.57869911 C522.7016374 246.70967966 523.37938964 224.86738865 524 203 C469.22 203 414.44 203 358 203 C358 148.55 358 94.1 358 38 C253.39 38 148.78 38 41 38 C41 75.95 41 113.9 41 153 C27.47 153 13.94 153 0 153 C0 102.51 0 52.02 0 0 Z " fill="#292929" transform="translate(232,157)"/>
<path d="M0 0 C6.75606061 5.57375 12.17704698 12.78923592 17.5703125 19.64453125 C20.50225586 23.33679212 23.49895141 26.97320553 26.5 30.609375 C27.10038086 31.33721191 27.70076172 32.06504883 28.31933594 32.81494141 C29.55546587 34.31315183 30.79179603 35.81119706 32.02832031 37.30908203 C34.98007179 40.88599293 37.92739624 44.46654606 40.875 48.046875 C44.43295545 52.36771369 47.99131054 56.68822195 51.55078125 61.0078125 C57.20437553 67.86943975 62.85400654 74.73398524 68.4765625 81.62109375 C70.36139087 83.92033879 72.25254661 86.21380416 74.1484375 88.50390625 C77.15657299 92.13842715 80.15399817 95.78151138 83.14257812 99.43212891 C84.26391374 100.80092952 85.38746934 102.16791576 86.51367188 103.53271484 C100.74558806 120.82511488 100.74558806 120.82511488 100.2578125 133.62109375 C99.28107098 141.08618967 95.51993756 147.58500066 89.875 152.546875 C82.68632131 157.11265741 75.2534603 158.76413842 66.828125 157.15625 C56.25337769 153.85692884 49.42573486 143.86435796 42.875 135.546875 C41.48317666 133.83527304 40.08728419 132.12697256 38.6875 130.421875 C37.96046875 129.53242187 37.2334375 128.64296875 36.484375 127.7265625 C34.41867349 125.20494773 32.34297827 122.69171022 30.265625 120.1796875 C29.63422607 119.41543457 29.00282715 118.65118164 28.35229492 117.86376953 C27.09323951 116.3403173 25.83301853 114.81782748 24.5715332 113.29638672 C23.99234131 112.59529785 23.41314941 111.89420898 22.81640625 111.171875 C22.29763916 110.54539062 21.77887207 109.91890625 21.24438477 109.2734375 C20.04205035 107.75749722 18.94826719 106.15677578 17.875 104.546875 C17.87353344 105.36078768 17.87206688 106.17470036 17.87055588 107.01327705 C17.83350234 126.8186478 17.77450691 146.62384722 17.69109726 166.42907906 C17.65128989 176.00675868 17.61890602 185.58435594 17.60400391 195.16210938 C17.59099619 203.510202 17.56405406 211.85811352 17.52038693 220.20610416 C17.49775227 224.62623723 17.48209052 229.04614676 17.48311615 233.46634293 C17.48386158 237.62790257 17.46595807 241.7889677 17.43383217 245.9503994 C17.4253226 247.47656054 17.42359045 249.00277708 17.42919731 250.52895164 C17.43584341 252.6162417 17.41790588 254.70196108 17.39398193 256.78909302 C17.38845118 258.53957789 17.38845118 258.53957789 17.38280869 260.3254261 C16.75987211 264.27722608 15.35338483 266.43876325 12.875 269.546875 C9.85101462 271.56286525 9.24339498 271.80079255 5.85009766 271.83740234 C5.04561188 271.85016205 4.2411261 271.86292175 3.41226196 271.87606812 C2.11377823 271.87940659 2.11377823 271.87940659 0.7890625 271.8828125 C-0.10487213 271.8894693 -0.99880676 271.8961261 -1.91983032 271.90298462 C-3.81111595 271.91310969 -5.7024373 271.91780168 -7.59375 271.91748047 C-10.48237266 271.92184835 -13.36946076 271.95815395 -16.2578125 271.99609375 C-18.09634895 272.00196306 -19.93489265 272.00593169 -21.7734375 272.0078125 C-22.63504486 272.02218353 -23.49665222 272.03655457 -24.3843689 272.05136108 C-28.49377163 272.02017395 -30.59219016 271.88253917 -34.14697266 269.64306641 C-37.47376703 266.11753487 -37.24891829 263.88849364 -37.24525452 259.11825562 C-37.24610894 258.45092773 -37.24696337 257.78359985 -37.24784368 257.0960499 C-37.24949684 254.84965089 -37.24397979 252.60332579 -37.23852539 250.35693359 C-37.23824346 248.7507477 -37.23840137 247.14456167 -37.2389679 245.53837585 C-37.23925563 241.16878772 -37.23336274 236.79922685 -37.22639394 232.42964506 C-37.22015644 227.86656042 -37.21955629 223.30347521 -37.21836853 218.74038696 C-37.21525639 210.0954099 -37.20704456 201.45044543 -37.19701904 192.80547392 C-37.18585429 182.96522954 -37.18034654 173.12498457 -37.17532361 163.28473544 C-37.16486186 143.03877492 -37.14726467 122.79282575 -37.125 102.546875 C-37.785 102.546875 -38.445 102.546875 -39.125 102.546875 C-39.40174561 103.13823242 -39.67849121 103.72958984 -39.96362305 104.33886719 C-41.05944912 106.42224978 -42.21409597 108.06418648 -43.70703125 109.875 C-44.22040039 110.50188721 -44.73376953 111.12877441 -45.26269531 111.7746582 C-45.81538086 112.44198975 -46.36806641 113.10932129 -46.9375 113.796875 C-48.11599653 115.23298175 -49.29437866 116.66918237 -50.47265625 118.10546875 C-51.0773877 118.84007324 -51.68211914 119.57467773 -52.30517578 120.33154297 C-54.62449106 123.15492193 -56.92764315 125.99117436 -59.22851562 128.82958984 C-60.32310791 130.17900269 -61.41945408 131.52699482 -62.51757812 132.87353516 C-64.92428394 135.8247545 -67.31890185 138.7816533 -69.66015625 141.78515625 C-75.18694117 148.79080643 -80.9789738 155.71766976 -90.125 157.546875 C-99.09592813 158.53167672 -105.84710218 156.31833373 -112.9375 150.796875 C-117.48272814 146.65238623 -120.67487941 140.56844418 -121.36328125 134.41796875 C-121.7510684 121.70263207 -115.64835365 114.32956663 -107.59960938 105.25 C-105.23112732 102.51448165 -103.02452271 99.65925277 -100.8125 96.796875 C-96.09591871 90.72648389 -91.22833707 84.79207876 -86.32373047 78.87304688 C-82.62567325 74.39927982 -79.00021363 69.87897779 -75.4375 65.296875 C-71.49623892 60.22953933 -67.41636571 55.30856266 -63.24267578 50.43164062 C-59.52679871 46.06992439 -55.98461347 41.5899866 -52.4675293 37.06738281 C-48.12027528 31.49638332 -43.632241 26.04628775 -39.12158203 20.60717773 C-35.91422971 16.73640383 -32.76955032 12.83139721 -29.6875 8.859375 C-21.86858065 -0.94768838 -12.19569488 -7.79169395 0 0 Z " fill="#292929" transform="translate(677.125,545.453125)"/>
<path d="M0 0 C13.53 0 27.06 0 41 0 C44.37815398 12.38656459 44.37815398 12.38656459 45.69140625 18.48046875 C45.83743286 19.15514191 45.98345947 19.82981506 46.13391113 20.52493286 C46.61329557 22.7451158 47.08803997 24.96625992 47.5625 27.1875 C47.90738414 28.79127838 48.25235743 30.3950376 48.59741211 31.9987793 C51.69853966 46.44972286 54.69834679 60.92175435 57.7019043 75.39321899 C60.43680906 88.56524997 63.19913475 101.73024177 66.0625 114.875 C66.20865753 115.55011627 66.35481506 116.22523254 66.50540161 116.92080688 C66.90817554 118.77858182 67.31528089 120.63541615 67.72265625 122.4921875 C68.05922241 124.02915283 68.05922241 124.02915283 68.40258789 125.59716797 C68.90537166 127.9925691 68.90537166 127.9925691 70 130 C70.28655457 128.9760463 70.57310913 127.95209259 70.86834717 126.89710999 C73.62871861 117.03463864 76.39172744 107.17290913 79.15703964 97.31182194 C80.57711836 92.24753247 81.99640402 87.18302414 83.41357422 82.11791992 C91.08902482 54.68795482 98.95190056 27.32341916 107 0 C120.53 0 134.06 0 148 0 C151.11937117 9.3581135 154.11561077 18.59471276 156.71484375 28.0859375 C157.04754776 29.28723297 157.38025177 30.48852844 157.72303772 31.72622681 C158.43198035 34.28693988 159.13963673 36.84796311 159.8449707 39.40966797 C161.7091571 46.17927747 163.58732234 52.94501684 165.46484375 59.7109375 C165.65407787 60.39335258 165.843312 61.07576767 166.03828049 61.778862 C170.52598921 77.9580309 175.14503036 94.09917614 179.79663086 110.23193359 C180.07486191 111.19948578 180.35309296 112.16703796 180.63975525 113.16390991 C181.15345476 114.94993465 181.66883575 116.73547706 182.18629456 118.52041626 C182.41227829 119.30645233 182.63826202 120.0924884 182.87109375 120.90234375 C183.06630615 121.57773193 183.26151855 122.25312012 183.46264648 122.94897461 C184.07423319 125.28334075 184.54648587 127.63033065 185 130 C185.12448517 129.42102463 185.24897034 128.84204926 185.37722778 128.24552917 C196.52469858 76.406656 196.52469858 76.406656 201.33056641 54.99707031 C202.05419393 51.75737249 202.76814588 48.51563905 203.48046875 45.2734375 C206.8112594 30.13668987 210.34340885 15.06167308 214 0 C227.86 0 241.72 0 256 0 C254.680374 7.257943 253.27265206 14.30699461 251.44067383 21.42602539 C251.19111278 22.4083763 250.94155172 23.39072721 250.68442822 24.40284634 C249.86223443 27.63538022 249.03469071 30.86651788 248.20703125 34.09765625 C247.62201001 36.39270399 247.03729978 38.68783103 246.45288086 40.98303223 C244.8974567 47.08752635 243.33727796 53.19079574 241.77606583 59.2938118 C240.49199318 64.31606278 239.21084051 69.33905661 237.92971325 74.36205959 C230.34568406 104.09575493 222.73770277 133.82337199 215.0012207 163.51782227 C214.58924438 165.10125427 214.58924438 165.10125427 214.16894531 166.7166748 C213.67573459 168.61122905 213.18131795 170.50547006 212.68530273 172.39929199 C212.47437988 173.20926636 212.26345703 174.01924072 212.04614258 174.85375977 C211.86634354 175.54123795 211.68654449 176.22871613 211.501297 176.93702698 C210.93296006 179.27588754 210.47203633 181.63981837 210 184 C194.82 184 179.64 184 164 184 C158.07873106 164.06749796 152.63144224 144.02632755 147.25085449 123.94287109 C146.33792939 120.53725087 145.42289333 117.13219966 144.50771523 113.7271843 C143.38082622 109.53443501 142.25479595 105.34145523 141.12890625 101.1484375 C140.91020496 100.33403954 140.69150368 99.51964157 140.46617508 98.68056488 C138.15949136 90.08835312 135.86252935 81.49377676 133.59326172 72.89160156 C133.21815087 71.47277342 132.84298455 70.05395995 132.46775818 68.63516235 C131.77292407 66.0078461 131.08258688 63.37948592 130.39466858 60.75033569 C130.09161301 59.60376495 129.78855743 58.45719421 129.47631836 57.27587891 C129.21362656 56.27489166 128.95093475 55.27390442 128.68028259 54.24258423 C128.20776258 52.05063058 128.20776258 52.05063058 127 51 C126.7407222 51.97304581 126.4814444 52.94609161 126.21430969 53.94862366 C122.91721192 66.32085163 119.61626538 78.69205084 116.3125 91.0625 C116.05045147 92.04371071 115.78840294 93.02492142 115.51841354 94.03586578 C107.4965423 124.06795353 99.36241508 154.06048923 91 184 C75.82 184 60.64 184 45 184 C39.12775144 160.60124127 33.25939343 137.20151818 27.39818573 113.79999161 C24.67670374 102.93470345 21.95345671 92.06986335 19.22607422 81.20605469 C16.84935747 71.73901163 14.47593205 62.27115067 12.10648298 52.80228591 C10.85134955 47.78697434 9.59455307 42.77209262 8.33381653 37.75818634 C7.14783654 33.04136485 5.9662521 28.3234644 4.78806496 23.60469055 C4.3543278 21.87084462 3.9189708 20.13740301 3.48189354 18.40439606 C2.88637572 16.04216358 2.29664989 13.6785588 1.70837402 11.31451416 C1.53328135 10.62579483 1.35818868 9.93707551 1.17779016 9.2274859 C0.3812332 6.00078707 0 3.35802092 0 0 Z " fill="#FDFDFD" transform="translate(199,440)"/>
<path d="M0 0 C36.577708 -0.3855677 73.15481735 -0.68933532 109.7341461 -0.8681106 C114.06796603 -0.88936863 118.40178187 -0.9113725 122.7355957 -0.93383789 C124.02958855 -0.94052681 124.02958855 -0.94052681 125.34972266 -0.94735085 C139.25643937 -1.02100972 153.16194227 -1.15486739 167.06794264 -1.31159753 C181.37283376 -1.47145986 195.6770962 -1.56518343 209.9828437 -1.59950441 C218.00364944 -1.62059196 226.02191765 -1.67108001 234.0418148 -1.79741096 C297.12096566 -2.76221972 297.12096566 -2.76221972 317.45910072 14.88295174 C321.66346884 18.38598324 326.35948111 21.04091204 331.0625 23.8125 C332.71909419 24.84162325 334.37317531 25.8748158 336.0234375 26.9140625 C342.21930534 30.7781255 348.49552887 34.50801136 354.78344727 38.2199707 C355.57033936 38.68749756 356.35723145 39.15502441 357.16796875 39.63671875 C357.86172607 40.04623779 358.5554834 40.45575684 359.27026367 40.87768555 C361 42 361 42 363 44 C243.21 44 123.42 44 0 44 C0 29.48 0 14.96 0 0 Z " fill="#282828" transform="translate(231,746)"/>
<path d="M0 0 C7.87529988 6.75025704 7.87529988 6.75025704 11.448349 10.32136536 C12.25731628 11.12751282 13.06628357 11.93366028 13.89976501 12.76423645 C15.19449486 14.06200264 15.19449486 14.06200264 16.51538086 15.38598633 C17.44299225 16.3118454 18.37060364 17.23770447 19.32632446 18.19161987 C21.85088701 20.71165505 24.37231449 23.23480465 26.89302135 25.75869584 C29.53537847 28.40359645 32.18018775 31.04604321 34.82460022 33.68888855 C39.2570172 38.11949154 43.68733283 42.55218753 48.11645508 46.98608398 C53.24237763 52.11746785 58.37191991 57.24521218 63.50331777 62.37112027 C67.91290425 66.77617764 72.32055027 71.18316948 76.72656161 75.59180278 C79.35678738 78.22358986 81.98768973 80.85469101 84.62034416 83.48404884 C87.54655061 86.40684589 90.46867659 89.3336888 93.39038086 92.26098633 C94.2677037 93.13628494 95.14502655 94.01158356 96.04893494 94.91340637 C96.83816345 95.70545471 97.62739197 96.49750305 98.4405365 97.31355286 C99.47774291 98.3513248 99.47774291 98.3513248 100.53590298 99.41006184 C102 101 102 101 102 102 C68.34 102 34.68 102 0 102 C0 68.34 0 34.68 0 0 Z " fill="#FEFEFE" transform="translate(628,219)"/>
<path d="M0 0 C1.43823545 1.25728204 1.43823545 1.25728204 2.90552616 2.53996372 C5.70210294 4.94166656 8.56209945 7.22142109 11.49481106 9.45442867 C28.93220546 22.88076311 48.11825981 38.12445284 51.63748169 61.00588989 C53.2690103 74.90872256 52.83155606 88.96364353 52.24505532 102.92112741 C51.94519646 110.25896116 51.88983416 117.5936915 51.84342467 124.93677705 C51.75462163 138.0192724 51.48449327 151.09103189 51.09301758 164.16772461 C50.71414011 176.83711548 50.42523014 189.5035463 50.25219727 202.17749023 C50.2414256 202.96424639 50.23065394 203.75100255 50.21955586 204.5615998 C50.16603257 208.51023276 50.11422458 212.458886 50.06326783 216.40755284 C49.64116113 248.94617543 48.92177525 281.47162815 48 314 C46.87879843 313.0449028 45.75843599 312.08882049 44.63842773 311.13232422 C44.01443588 310.6000119 43.39044403 310.06769958 42.74754333 309.51925659 C40.76775864 307.79809702 38.89845846 305.998427 37.0625 304.125 C36.47597656 303.52945312 35.88945313 302.93390625 35.28515625 302.3203125 C34.86105469 301.88460938 34.43695312 301.44890625 34 301 C34.33 300.34 34.66 299.68 35 299 C38.3 302.3 41.6 305.6 45 309 C46.03349007 276.39135548 46.8263585 243.7875445 47.29793983 211.16618501 C47.35420093 207.28857901 47.41244742 203.41100521 47.47192383 199.53344727 C47.4837278 198.76171016 47.49553177 197.98997306 47.50769343 197.19484999 C47.7019123 184.80439134 48.05570006 172.42362418 48.47187582 160.03885893 C48.89738801 147.26672355 49.14357847 134.49954377 49.23398226 121.72061652 C49.28947819 114.56435286 49.42014123 107.42816815 49.75785255 100.27918434 C50.94450706 74.43257555 51.32993502 51.51090799 33.19086771 31.59718149 C23.56621696 21.31663947 12.8000784 12.14669231 1.67880267 3.53364867 C1.12479779 3.02754461 0.57079291 2.52144055 0 2 C0 1.34 0 0.68 0 0 Z " fill="#111111" transform="translate(749,284)"/>
<path d="M0 0 C5.8587357 4.86278917 11.23644152 10.10078525 16.60717773 15.49365234 C17.55379596 16.44055319 18.50063551 17.38723281 19.44767761 18.33370972 C21.99901164 20.88475868 24.5472664 23.43886305 27.09495044 25.9935565 C29.76503319 28.66992131 32.43797774 31.34342496 35.11061096 34.01724243 C40.16270611 39.07243665 45.21224829 44.13017292 50.26086241 49.18884337 C56.01225297 54.95143942 61.76650792 60.71117162 67.52099693 66.47067332 C79.35050567 78.3106142 91.17643916 90.15411938 103 102 C102.505 103.485 102.505 103.485 102 105 C68.01 105 34.02 105 -1 105 C-1 104.34 -1 103.68 -1 103 C32.33 102.67 65.66 102.34 100 102 C89.171875 91.20667969 89.171875 91.20667969 78.125 80.1953125 C73.56715866 75.64768438 69.00957097 71.09980674 64.453125 66.55078125 C57.21320722 59.32274848 49.97224324 52.09578513 42.72460938 44.87548828 C37.44710607 39.61788153 32.1730944 34.35680194 26.90329552 29.09147251 C24.11128961 26.30208033 21.31753313 23.51449246 18.51959229 20.7310524 C15.8887963 18.1137814 13.26267691 15.49190991 10.64014435 12.86635971 C9.21216384 11.43919605 7.77920191 10.01702218 6.34613037 8.5949707 C5.50471497 7.75080597 4.66329956 6.90664124 3.79638672 6.03689575 C3.05895233 5.30130495 2.32151794 4.56571415 1.56173706 3.80783272 C0 2 0 2 0 0 Z " fill="#161616" transform="translate(629,218)"/>
<path d="M0 0 C1.29065057 3.8719517 0.22324098 6.44232601 -0.9375 10.1875 C-1.13279297 10.84169922 -1.32808594 11.49589844 -1.52929688 12.16992188 C-2.01182563 13.78227407 -2.50490205 15.39146289 -3 17 C-3.33 17 -3.66 17 -4 17 C-4.33951619 15.43883181 -4.67132544 13.87598662 -5 12.3125 C-5.185625 11.44238281 -5.37125 10.57226562 -5.5625 9.67578125 C-5.98972047 7.06287036 -6.07616201 4.64186962 -6 2 C-4.0625 1.4375 -4.0625 1.4375 -2 1 C-1.67 1.33 -1.34 1.66 -1 2 C-0.67 1.34 -0.34 0.68 0 0 Z " fill="#1B1A1B" transform="translate(272,556)"/>
<path d="M0 0 C0.33 0 0.66 0 1 0 C0.50130596 5.36891879 -0.02227532 10.69235173 -1 16 C-1.66 15.67 -2.32 15.34 -3 15 C-5.38056989 7.35711773 -5.38056989 7.35711773 -4 3 C-3.34 3.66 -2.68 4.32 -2 5 C-1.34 3.35 -0.68 1.7 0 0 Z " fill="#181819" transform="translate(386,555)"/>
<path d="M0 0 C3.90285767 1.58667578 6.33520982 4.13350481 9.25 7.125 C10.14203125 8.03507813 11.0340625 8.94515625 11.953125 9.8828125 C12.62859375 10.58148438 13.3040625 11.28015625 14 12 C13.34 12.66 12.68 13.32 12 14 C9.99387601 12.04761147 7.99507567 10.08862178 6 8.125 C5.42765625 7.56941406 4.8553125 7.01382813 4.265625 6.44140625 C2.80549218 4.99865596 1.39850702 3.5025626 0 2 C0 1.34 0 0.68 0 0 Z " fill="#363636" transform="translate(701,236)"/>
<path d="M0 0 C1.67110042 2.96178773 2.32682752 5.37071192 2.625 8.75 C2.69976562 9.54921875 2.77453125 10.3484375 2.8515625 11.171875 C2.92503906 12.07679688 2.92503906 12.07679688 3 13 C2.67 12.34 2.34 11.68 2 11 C1.34 10.67 0.68 10.34 0 10 C-0.66 10.66 -1.32 11.32 -2 12 C-1.85831863 10.56208484 -1.71148957 9.1246763 -1.5625 7.6875 C-1.48128906 6.88699219 -1.40007812 6.08648437 -1.31640625 5.26171875 C-1 3 -1 3 0 0 Z " fill="#1A1A19" transform="translate(326,488)"/>
<path d="M0 0 C0.99 0.33 1.98 0.66 3 1 C-1.81776765 8.66742597 -1.81776765 8.66742597 -7 10 C-6.57847656 9.44570313 -6.15695312 8.89140625 -5.72265625 8.3203125 C-5.17480469 7.59585938 -4.62695312 6.87140625 -4.0625 6.125 C-3.51722656 5.40570312 -2.97195313 4.68640625 -2.41015625 3.9453125 C-0.96035376 2.05642921 -0.96035376 2.05642921 0 0 Z " fill="#1D1C1C" transform="translate(593,621)"/>
<path d="M0 0 C7.75 0.75 7.75 0.75 10 3 C6.7 3 3.4 3 0 3 C0 2.01 0 1.02 0 0 Z " fill="#30302F" transform="translate(577,700)"/>
<path d="M0 0 C3.36720387 1.39332574 4.9859524 2.9789286 7 6 C4 6 4 6 1.8125 4.125 C0 2 0 2 0 0 Z " fill="#333333" transform="translate(690,225)"/>
<path d="M0 0 C0.99 0 1.98 0 3 0 C2.67 1.98 2.34 3.96 2 6 C1.01 6.33 0.02 6.66 -1 7 C-0.67 4.69 -0.34 2.38 0 0 Z " fill="#313132" transform="translate(434,521)"/>
<path d="M0 0 C1.10740461 3.32221382 0.97233311 5.64103108 0 9 C-0.66 9.66 -1.32 10.32 -2 11 C-1.85892253 9.54119891 -1.71197585 8.08296449 -1.5625 6.625 C-1.48128906 5.81289063 -1.40007812 5.00078125 -1.31640625 4.1640625 C-1 2 -1 2 0 0 Z " fill="#171717" transform="translate(322,504)"/>
</svg>
